<svg width="512" height="512" viewBox="0 0 512 512" fill="none" xmlns="http://www.w3.org/2000/svg">
<path d="M31 156C31 86.9644 86.9644 31 156 31H356C425.036 31 481 86.9644 481 156V356C481 425.036 425.036 481 356 481H156C86.9644 481 31 425.036 31 356V156Z" fill="url(#paint0_linear_10_2)"/>
<g filter="url(#filter0_d_10_2)">
<path opacity="0.9" d="M251.667 85.5C252.421 85.5001 253.55 85.8202 255.109 86.7764C256.642 87.7161 258.402 89.1557 260.368 91.0977C264.299 94.9804 268.81 100.632 273.675 107.601C283.391 121.519 294.3 140.371 304.539 159.984C314.773 179.587 324.303 199.882 331.267 216.655C334.749 225.044 337.578 232.524 339.531 238.579C340.866 242.717 341.746 246.058 342.181 248.523C341.092 248.216 339.819 247.755 338.357 247.122C335.429 245.855 331.993 244.018 328.162 241.767C320.492 237.259 311.501 231.247 302.187 225.157C292.917 219.098 283.349 212.977 274.671 208.37C266.114 203.828 257.967 200.5 251.667 200.5C249.691 200.5 247.888 199.658 246.123 197.847C244.312 195.989 242.642 193.203 241.084 189.609C237.964 182.413 235.599 172.73 233.218 162.753C230.869 152.912 228.501 142.774 225.369 135.116C223.802 131.285 221.967 127.876 219.703 125.392C217.985 123.507 215.947 122.084 213.563 121.482C214.695 101.42 231.321 85.5 251.667 85.5Z" fill="url(#paint1_linear_10_2)" stroke="black" stroke-width="5"/>
<path opacity="0.9" d="M251.644 207.971C273.157 242.624 274.905 247.546 290.166 269.774V427.167H213.833V269.815C231.519 245.638 232.341 243.486 251.644 207.971Z" fill="url(#paint2_linear_10_2)" stroke="black" stroke-width="5"/>
</g>
<defs>
<filter id="filter0_d_10_2" x="208" y="80" width="148" height="360.667" filterUnits="userSpaceOnUse" color-interpolation-filters="sRGB">
<feFlood flood-opacity="0" result="BackgroundImageFix"/>
<feColorMatrix in="SourceAlpha" type="matrix" values="0 0 0 0 0 0 0 0 0 0 0 0 0 0 0 0 0 0 127 0" result="hardAlpha"/>
<feOffset dx="4" dy="4"/>
<feGaussianBlur stdDeviation="3.5"/>
<feComposite in2="hardAlpha" operator="out"/>
<feColorMatrix type="matrix" values="0 0 0 0 0 0 0 0 0 0 0 0 0 0 0 0 0 0 0.25 0"/>
<feBlend mode="normal" in2="BackgroundImageFix" result="effect1_dropShadow_10_2"/>
<feBlend mode="normal" in="SourceGraphic" in2="effect1_dropShadow_10_2" result="shape"/>
</filter>
<linearGradient id="paint0_linear_10_2" x1="310" y1="328.5" x2="495.5" y2="538.5" gradientUnits="userSpaceOnUse">
<stop stop-color="#2B2B2B"/>
<stop offset="1" stop-color="#464646"/>
</linearGradient>
<linearGradient id="paint1_linear_10_2" x1="170.333" y1="91.4507" x2="195.279" y2="190.176" gradientUnits="userSpaceOnUse">
<stop stop-color="#EBFF00"/>
<stop offset="1" stop-color="#00FFAA"/>
</linearGradient>
<linearGradient id="paint2_linear_10_2" x1="170.667" y1="192.798" x2="338.079" y2="396.664" gradientUnits="userSpaceOnUse">
<stop stop-color="#EBFF00"/>
<stop offset="1" stop-color="#00FFAA"/>
</linearGradient>
</defs>
</svg>
